<svg width="245" height="150" viewBox="0 0 245 150" fill="none" xmlns="http://www.w3.org/2000/svg">
<path d="M88.0566 42.3165V29.4534C88.0566 21.7224 91.1278 14.3081 96.5944 8.84142C102.061 3.37478 109.475 0.30365 117.206 0.30365C124.937 0.30365 132.352 3.37478 137.818 8.84142C143.285 14.3081 146.356 21.7224 146.356 29.4534V42.3165C146.354 44.0584 145.661 45.7284 144.43 46.9601C143.198 48.1918 141.528 48.8847 139.786 48.8866H100.385L97.166 42.0467V48.8866H94.6268C92.8849 48.8847 91.2149 48.1918 89.9832 46.9601C88.7515 45.7284 88.0586 44.0584 88.0566 42.3165Z" fill="#2F2E41"/>
<path d="M138.466 83.4877L139.721 97.0925L140.292 103.274L141.202 113.116L141.317 114.386L142.058 122.38L142.076 122.467C142.543 123.962 143.48 125.267 144.748 126.188C146.016 127.108 147.546 127.596 149.113 127.577L182.927 126.993L192.471 126.827C192.655 127.103 192.834 127.351 193.014 127.572C193.852 128.59 194.895 129.42 196.074 130.009C197.254 130.598 198.545 130.932 199.862 130.989C201.186 131.05 202.507 130.828 203.738 130.337C204.969 129.846 206.081 129.098 207 128.142C207.184 127.954 207.363 127.756 207.529 127.549C208.779 126.011 209.511 124.117 209.62 122.138C209.729 120.158 209.21 118.195 208.136 116.529C207.421 115.414 206.476 114.464 205.364 113.744C204.252 113.023 202.998 112.549 201.688 112.353C200.385 112.153 199.055 112.23 197.784 112.578C196.513 112.925 195.33 113.537 194.31 114.372C193.987 114.639 193.684 114.929 193.405 115.241L182.927 113.714L156.541 109.874L155.414 94.6502C155.409 94.5812 155.405 94.5122 155.4 94.4387L154.49 82.1538C154.338 80.1096 153.411 78.2006 151.899 76.8166C150.387 75.4327 148.403 74.6783 146.353 74.7075C145.679 74.7144 145.008 74.8087 144.357 74.9881C143.628 75.1855 142.932 75.486 142.288 75.8804C141.001 76.6623 139.961 77.7903 139.285 79.1355C138.609 80.4807 138.325 81.9888 138.466 83.4877Z" fill="#9E616A"/>
<path d="M118.386 49.5922C128.941 49.5922 137.498 41.0353 137.498 30.4798C137.498 19.9243 128.941 11.3674 118.386 11.3674C107.83 11.3674 99.2736 19.9243 99.2736 30.4798C99.2736 41.0353 107.83 49.5922 118.386 49.5922Z" fill="#9E616A"/>
<path d="M143.869 62.3338L147.344 61.1755C147.344 61.1755 154.294 64.0713 154.294 69.2837C154.294 74.4962 155.452 95.3461 155.452 95.3461L139.815 97.0836L143.869 62.3338Z" fill="#1AAF99"/>
<path d="M69.9402 149.065H83.72L88.4343 109.561L90.1406 95.2941L90.3751 93.3256L91.6354 82.7656C91.7032 81.4396 91.4073 80.1203 90.7798 78.9503C90.1523 77.7802 89.2169 76.8039 88.0749 76.1268C86.9328 75.4497 85.6274 75.0976 84.2997 75.1085C82.972 75.1193 81.6726 75.4928 80.5418 76.1886C80.257 76.364 79.985 76.5591 79.7277 76.7727C78.9368 77.4229 78.2926 78.2333 77.8376 79.1506C77.3825 80.0678 77.1269 81.071 77.0876 82.0941L75.8459 93.7074L69.9402 149.065Z" fill="#9E616A"/>
<path d="M90.6077 95.346L74.9703 93.6086C74.9703 93.6086 76.1287 72.7587 76.1287 67.5462C76.1287 62.3337 83.0786 59.4379 83.0786 59.4379L86.5536 60.5963L90.6077 95.346Z" fill="#1AAF99"/>
<path d="M85.5366 149.065H150.907C148.835 141.148 146.009 133.449 142.467 126.073C141.892 124.9 141.552 124.274 141.552 124.274C141.552 124.274 113.753 123.727 96.3774 130.677C95.269 131.155 94.275 131.864 93.4613 132.756C90.4533 135.865 87.8226 141.701 85.5366 149.065Z" fill="#2F2E41"/>
<path d="M99.2735 55.963C99.2735 55.963 98.722 55.6669 131.705 56.8684L145.509 60.6702L147.344 61.1755C147.344 61.1755 145.607 95.9252 140.973 102.296C136.34 108.667 137.498 112.142 138.657 112.721C139.815 113.3 142.711 112.142 140.973 115.038C139.236 117.933 136.919 116.196 139.236 117.933C141.552 119.671 142.711 126.042 142.711 126.042L91.7445 132.992C91.7445 132.992 90.007 110.404 85.3737 98.8211C80.7404 87.2378 79.582 82.6045 79.582 82.6045L83.057 59.438L99.2735 55.963Z" fill="#1AAF99"/>
<path d="M97.7733 19.7369C97.7733 14.7439 99.7568 9.95547 103.287 6.42493C106.818 2.89438 111.606 0.91095 116.599 0.91095C121.592 0.91095 126.381 2.89438 129.911 6.42493C133.442 9.95547 135.425 14.7439 135.425 19.7369V28.2389H97.7733V19.7369Z" fill="#2F2E41"/>
<path d="M180.668 144.286V145.965C180.668 146.948 180.277 147.891 179.582 148.586C178.887 149.281 177.944 149.672 176.961 149.672H53.6672C52.684 149.672 51.7412 149.281 51.0461 148.586C50.3509 147.891 49.9603 146.948 49.9601 145.965V144.286C49.9603 143.303 50.3509 142.36 51.0461 141.665C51.7412 140.97 52.684 140.579 53.6672 140.579H55.8563C55.7791 140.308 55.7389 140.028 55.7368 139.747V76.8189C55.7374 75.9944 56.0651 75.2039 56.648 74.621C57.231 74.038 58.0215 73.7103 58.8459 73.7097H171.782C172.607 73.7103 173.397 74.038 173.98 74.621C174.563 75.2039 174.891 75.9944 174.891 76.8189V139.747C174.892 140.029 174.851 140.309 174.772 140.579H176.961C177.944 140.579 178.887 140.97 179.582 141.665C180.277 142.36 180.668 143.303 180.668 144.286Z" fill="#3F3D56"/>
<path d="M117.743 109.263C116.35 109.263 114.987 108.85 113.829 108.076C112.67 107.302 111.767 106.201 111.233 104.914C110.7 103.626 110.561 102.209 110.832 100.842C111.104 99.4755 111.775 98.2199 112.761 97.2345C113.746 96.249 115.002 95.5779 116.369 95.3061C117.736 95.0342 119.152 95.1737 120.44 95.707C121.727 96.2404 122.828 97.1435 123.602 98.3023C124.376 99.461 124.79 100.823 124.79 102.217C124.788 104.085 124.045 105.876 122.724 107.197C121.403 108.518 119.612 109.261 117.743 109.263ZM117.743 96.3852C116.59 96.3852 115.462 96.7273 114.503 97.3681C113.544 98.0089 112.797 98.9197 112.355 99.9853C111.914 101.051 111.799 102.223 112.024 103.355C112.249 104.486 112.804 105.525 113.62 106.341C114.435 107.156 115.474 107.712 116.606 107.937C117.737 108.162 118.909 108.046 119.975 107.605C121.041 107.163 121.952 106.416 122.592 105.457C123.233 104.498 123.575 103.37 123.575 102.217C123.573 100.671 122.958 99.1886 121.865 98.0953C120.772 97.002 119.29 96.387 117.743 96.3852V96.3852Z" fill="white"/>
<path d="M115.314 106.227C118.87 106.227 121.753 103.344 121.753 99.7879C121.753 96.2317 118.87 93.3488 115.314 93.3488C111.758 93.3488 108.875 96.2317 108.875 99.7879C108.875 103.344 111.758 106.227 115.314 106.227Z" fill="white"/>
</svg>
