<svg width="564" height="426" viewBox="0 0 564 426" fill="none" xmlns="http://www.w3.org/2000/svg">
<g clip-path="url(#clip0_1023_4158)">
<path d="M325.017 20.7335C329.855 31.0347 319.603 33.9525 307.861 39.4738C296.118 44.9951 287.33 51.029 282.492 40.7279C277.655 30.4267 273.73 9.98081 290.342 2.16998C307.526 -5.90993 320.179 10.4324 325.017 20.7335Z" fill="#122B57"/>
<path d="M301.058 40.9919C309.789 40.9919 316.867 33.9101 316.867 25.1742C316.867 16.4383 309.789 9.35645 301.058 9.35645C292.328 9.35645 285.25 16.4383 285.25 25.1742C285.25 33.9101 292.328 40.9919 301.058 40.9919Z" fill="#FFB8B8"/>
<path d="M379.376 95.3225C378.829 94.6076 378.282 93.9057 377.728 93.223C377.014 92.3343 376.295 91.4734 375.572 90.6405C367.378 81.1799 358.664 75.2227 349.067 74.5851H349.054L348.913 74.5723L329.79 93.223L323.289 99.5601L323.431 99.9079L326.939 108.647H388.4C385.63 104.049 382.618 99.6007 379.376 95.3225Z" fill="#122B57"/>
<path d="M283.868 31.5423L289.527 28.8816L288.738 20.7133L292.522 27.4731L295.227 26.2014L294.767 21.4365L296.975 25.3797L317.072 15.9303C315.184 11.911 311.778 8.80666 307.603 7.30011C303.428 5.79356 298.826 6.00824 294.809 7.89691L291.897 9.2664C287.88 11.1551 284.777 14.5631 283.271 18.7406C281.766 22.9182 281.98 27.5231 283.868 31.5423Z" fill="#122B57"/>
<path d="M414.84 318.66H84.7589C81.9432 318.657 79.2438 317.536 77.2529 315.544C75.2619 313.552 74.142 310.851 74.1389 308.034V109.577C74.1411 107.513 74.9616 105.534 76.4201 104.075C77.8787 102.615 79.8563 101.794 81.9191 101.792H417.545C419.644 101.794 421.656 102.63 423.139 104.114C424.623 105.599 425.458 107.612 425.46 109.712V308.034C425.457 310.851 424.337 313.552 422.346 315.544C420.355 317.536 417.656 318.657 414.84 318.66Z" fill="#F2F2F2"/>
<path d="M95.057 308.034H404.542C407.273 308.034 409.893 306.948 411.824 305.016C413.755 303.083 414.84 300.462 414.84 297.729V129.288C414.84 126.555 413.755 123.934 411.824 122.002C409.893 120.069 407.273 118.984 404.542 118.984H95.057C92.3258 118.984 89.7064 120.069 87.7751 122.002C85.8438 123.934 84.7589 126.555 84.7589 129.288V297.729C84.7589 300.462 85.8438 303.083 87.7751 305.016C89.7064 306.948 92.3258 308.034 95.057 308.034Z" fill="white"/>
<path d="M425.312 108.969H73.9898V103.559C73.9939 100.733 75.1184 98.0232 77.1166 96.0251C79.1148 94.0269 81.8235 92.9035 84.6485 92.9011H414.654C417.479 92.9034 420.187 94.0269 422.186 96.025C424.184 98.0232 425.308 100.733 425.312 103.559V108.969Z" fill="#1AAF99"/>
<path d="M93.3603 103.71C94.8829 103.71 96.1172 102.475 96.1172 100.951C96.1172 99.4277 94.8829 98.1926 93.3603 98.1926C91.8376 98.1926 90.6033 99.4277 90.6033 100.951C90.6033 102.475 91.8376 103.71 93.3603 103.71Z" fill="white"/>
<path d="M103.825 103.71C105.348 103.71 106.582 102.475 106.582 100.951C106.582 99.4277 105.348 98.1926 103.825 98.1926C102.302 98.1926 101.068 99.4277 101.068 100.951C101.068 102.475 102.302 103.71 103.825 103.71Z" fill="white"/>
<path d="M114.29 103.71C115.812 103.71 117.047 102.475 117.047 100.951C117.047 99.4277 115.812 98.1926 114.29 98.1926C112.767 98.1926 111.533 99.4277 111.533 100.951C111.533 102.475 112.767 103.71 114.29 103.71Z" fill="white"/>
<path d="M259.456 271.504H231.78C230.159 271.502 228.605 270.857 227.458 269.71C226.312 268.563 225.667 267.008 225.665 265.386V237.693C225.667 236.071 226.312 234.516 227.458 233.369C228.605 232.222 230.159 231.577 231.78 231.575H259.456C261.077 231.577 262.632 232.222 263.778 233.369C264.924 234.516 265.569 236.071 265.571 237.693V265.386C265.569 267.008 264.924 268.563 263.778 269.71C262.632 270.857 261.077 271.502 259.456 271.504ZM231.78 232.863C230.5 232.865 229.273 233.374 228.368 234.28C227.463 235.185 226.954 236.413 226.953 237.693V265.386C226.954 266.667 227.463 267.894 228.368 268.8C229.273 269.705 230.5 270.215 231.78 270.216H259.456C260.736 270.215 261.963 269.705 262.868 268.8C263.773 267.894 264.282 266.667 264.284 265.386V237.693C264.282 236.413 263.773 235.185 262.868 234.28C261.963 233.374 260.736 232.865 259.456 232.863H231.78Z" fill="#CCCCCC"/>
<path d="M253.985 263.776H237.251C236.739 263.776 236.248 263.572 235.886 263.21C235.524 262.847 235.321 262.356 235.32 261.844V241.236C235.321 240.723 235.524 240.232 235.886 239.87C236.248 239.508 236.739 239.304 237.251 239.303H249.377C249.816 239.304 250.243 239.454 250.586 239.73L255.195 243.435C255.42 243.616 255.603 243.845 255.728 244.106C255.852 244.366 255.917 244.652 255.916 244.941V261.844C255.916 262.356 255.712 262.847 255.35 263.21C254.988 263.572 254.497 263.776 253.985 263.776ZM237.251 240.592C237.08 240.592 236.917 240.66 236.796 240.78C236.675 240.901 236.607 241.065 236.607 241.236V261.844C236.607 262.015 236.675 262.178 236.796 262.299C236.917 262.42 237.08 262.488 237.251 262.488H253.985C254.156 262.488 254.32 262.42 254.44 262.299C254.561 262.178 254.629 262.015 254.629 261.844V244.941C254.629 244.845 254.608 244.75 254.566 244.663C254.525 244.576 254.464 244.499 254.389 244.439L249.779 240.733C249.665 240.642 249.523 240.592 249.377 240.592H237.251Z" fill="#CCCCCC"/>
<path d="M250.767 248.32H240.469C240.298 248.32 240.135 248.252 240.014 248.131C239.893 248.01 239.825 247.847 239.825 247.676C239.825 247.505 239.893 247.341 240.014 247.22C240.135 247.1 240.298 247.032 240.469 247.032H250.767C250.938 247.032 251.102 247.1 251.222 247.22C251.343 247.341 251.411 247.505 251.411 247.676C251.411 247.847 251.343 248.01 251.222 248.131C251.102 248.252 250.938 248.32 250.767 248.32Z" fill="#CCCCCC"/>
<path d="M250.767 252.184H240.469C240.298 252.184 240.135 252.116 240.014 251.995C239.893 251.874 239.825 251.711 239.825 251.54C239.825 251.369 239.893 251.205 240.014 251.084C240.135 250.964 240.298 250.896 240.469 250.896H250.767C250.938 250.896 251.102 250.964 251.222 251.084C251.343 251.205 251.411 251.369 251.411 251.54C251.411 251.711 251.343 251.874 251.222 251.995C251.102 252.116 250.938 252.184 250.767 252.184Z" fill="#CCCCCC"/>
<path d="M250.767 256.048H240.469C240.298 256.048 240.135 255.98 240.014 255.859C239.893 255.738 239.825 255.575 239.825 255.404C239.825 255.233 239.893 255.069 240.014 254.948C240.135 254.828 240.298 254.76 240.469 254.76H250.767C250.938 254.76 251.102 254.828 251.222 254.948C251.343 255.069 251.411 255.233 251.411 255.404C251.411 255.575 251.343 255.738 251.222 255.859C251.102 255.98 250.938 256.048 250.767 256.048Z" fill="#CCCCCC"/>
<path d="M325.107 271.504H297.431C295.81 271.502 294.256 270.857 293.109 269.71C291.963 268.563 291.318 267.008 291.316 265.386V237.693C291.318 236.071 291.963 234.516 293.109 233.369C294.256 232.222 295.81 231.577 297.431 231.575H325.107C326.728 231.577 328.282 232.222 329.429 233.369C330.575 234.516 331.22 236.071 331.222 237.693V265.386C331.22 267.008 330.575 268.563 329.429 269.71C328.282 270.857 326.728 271.502 325.107 271.504ZM297.431 232.863C296.151 232.865 294.924 233.374 294.019 234.28C293.114 235.185 292.605 236.413 292.604 237.693V265.386C292.605 266.667 293.114 267.894 294.019 268.8C294.924 269.705 296.151 270.215 297.431 270.216H325.107C326.387 270.215 327.614 269.705 328.519 268.8C329.424 267.894 329.933 266.667 329.934 265.386V237.693C329.933 236.413 329.424 235.185 328.519 234.28C327.614 233.374 326.387 232.865 325.107 232.863H297.431Z" fill="#CCCCCC"/>
<path d="M320.28 258.624H302.258C301.746 258.623 301.255 258.42 300.893 258.057C300.531 257.695 300.328 257.204 300.327 256.692V246.388C300.328 245.875 300.531 245.384 300.893 245.022C301.255 244.66 301.746 244.456 302.258 244.456H320.28C320.792 244.456 321.283 244.66 321.645 245.022C322.007 245.384 322.21 245.875 322.211 246.388V256.692C322.21 257.204 322.007 257.695 321.645 258.057C321.283 258.42 320.792 258.623 320.28 258.624ZM302.258 245.744C302.087 245.744 301.924 245.812 301.803 245.932C301.682 246.053 301.615 246.217 301.614 246.388V256.692C301.615 256.863 301.682 257.026 301.803 257.147C301.924 257.268 302.087 257.336 302.258 257.336H320.28C320.451 257.336 320.614 257.268 320.735 257.147C320.855 257.026 320.923 256.863 320.924 256.692V246.388C320.923 246.217 320.855 246.053 320.735 245.932C320.614 245.812 320.451 245.744 320.28 245.744H302.258Z" fill="#CCCCCC"/>
<path d="M311.269 253.239C310.907 253.239 310.553 253.138 310.246 252.947L300.629 246.934C300.485 246.843 300.382 246.699 300.344 246.532C300.306 246.366 300.336 246.192 300.426 246.047C300.516 245.902 300.66 245.799 300.827 245.761C300.993 245.722 301.167 245.751 301.312 245.841L310.928 251.855C311.031 251.918 311.149 251.952 311.269 251.952C311.39 251.952 311.508 251.918 311.61 251.855L321.226 245.841C321.371 245.751 321.545 245.722 321.711 245.761C321.877 245.799 322.022 245.902 322.112 246.047C322.202 246.192 322.232 246.366 322.194 246.532C322.155 246.699 322.053 246.843 321.908 246.934L312.293 252.947C311.986 253.138 311.631 253.239 311.269 253.239Z" fill="#CCCCCC"/>
<path d="M193.805 271.504H166.129C164.508 271.502 162.954 270.857 161.807 269.71C160.661 268.563 160.016 267.008 160.014 265.386V237.693C160.016 236.071 160.661 234.516 161.807 233.369C162.954 232.222 164.508 231.577 166.129 231.575H193.805C195.426 231.577 196.981 232.222 198.127 233.369C199.273 234.516 199.918 236.071 199.92 237.693V265.386C199.918 267.008 199.273 268.563 198.127 269.71C196.981 270.857 195.426 271.502 193.805 271.504ZM166.129 232.863C164.849 232.865 163.622 233.374 162.717 234.28C161.812 235.185 161.303 236.413 161.302 237.693V265.386C161.303 266.667 161.812 267.894 162.717 268.8C163.622 269.705 164.849 270.215 166.129 270.216H193.805C195.085 270.215 196.312 269.705 197.217 268.8C198.122 267.894 198.631 266.667 198.633 265.386V237.693C198.631 236.413 198.122 235.185 197.217 234.28C196.312 233.374 195.085 232.865 193.805 232.863H166.129Z" fill="#CCCCCC"/>
<path d="M188.978 258.624H170.956C170.444 258.623 169.954 258.42 169.592 258.057C169.23 257.695 169.026 257.204 169.025 256.692V246.388C169.026 245.875 169.23 245.384 169.592 245.022C169.954 244.66 170.444 244.456 170.956 244.456H188.978C189.49 244.456 189.981 244.66 190.343 245.022C190.705 245.384 190.908 245.875 190.909 246.388V256.692C190.908 257.204 190.705 257.695 190.343 258.057C189.981 258.42 189.49 258.623 188.978 258.624ZM170.956 245.744C170.786 245.744 170.622 245.812 170.501 245.932C170.381 246.053 170.313 246.217 170.313 246.388V256.692C170.313 256.863 170.381 257.026 170.501 257.147C170.622 257.268 170.786 257.336 170.956 257.336H188.978C189.149 257.336 189.312 257.268 189.433 257.147C189.554 257.026 189.622 256.863 189.622 256.692V246.388C189.622 246.217 189.554 246.053 189.433 245.932C189.312 245.812 189.149 245.744 188.978 245.744H170.956Z" fill="#CCCCCC"/>
<path d="M186.122 258.624H173.169C172.943 258.624 172.721 258.564 172.525 258.451C172.33 258.338 172.167 258.176 172.054 257.98C171.941 257.784 171.882 257.562 171.882 257.336C171.882 257.11 171.941 256.888 172.054 256.692L175.956 249.93C176.069 249.734 176.231 249.571 176.427 249.458C176.623 249.345 176.845 249.286 177.071 249.286C177.297 249.286 177.519 249.345 177.714 249.458C177.91 249.571 178.073 249.734 178.186 249.93L180.705 254.297L182.165 251.767C182.278 251.571 182.441 251.408 182.636 251.295C182.832 251.182 183.054 251.123 183.28 251.123C183.506 251.123 183.728 251.182 183.924 251.295C184.12 251.408 184.282 251.571 184.395 251.767L187.237 256.692C187.35 256.888 187.409 257.11 187.409 257.336C187.409 257.562 187.35 257.784 187.237 257.98C187.124 258.176 186.961 258.338 186.765 258.451C186.57 258.564 186.348 258.624 186.122 258.624H186.122ZM186.122 257.336L183.28 252.411L181.263 255.907C181.207 256.005 181.125 256.086 181.027 256.143C180.93 256.199 180.819 256.229 180.706 256.229C180.593 256.229 180.481 256.199 180.384 256.143C180.286 256.086 180.204 256.005 180.148 255.907L177.071 250.574L173.169 257.336H186.122Z" fill="#CCCCCC"/>
<path d="M187.047 249.608C187.758 249.608 188.334 249.031 188.334 248.32C188.334 247.608 187.758 247.031 187.047 247.031C186.336 247.031 185.76 247.608 185.76 248.32C185.76 249.031 186.336 249.608 187.047 249.608Z" fill="#CCCCCC"/>
<path d="M494.843 417.42L486.952 417.419L483.199 386.965L494.845 386.966L494.843 417.42Z" fill="#FFB8B8"/>
<path d="M496.856 425.073L471.412 425.072V424.75C471.412 423.449 471.669 422.16 472.166 420.958C472.664 419.756 473.393 418.664 474.313 417.744C475.233 416.823 476.324 416.093 477.526 415.596C478.727 415.098 480.015 414.841 481.316 414.841H481.316L496.856 414.842L496.856 425.073Z" fill="#122B57"/>
<path d="M527.025 417.42L519.134 417.419L515.381 386.965L527.027 386.966L527.025 417.42Z" fill="#FFB8B8"/>
<path d="M529.038 425.073L503.594 425.072V424.75C503.594 423.449 503.85 422.16 504.348 420.958C504.846 419.756 505.575 418.664 506.495 417.744C507.415 416.823 508.506 416.093 509.708 415.596C510.909 415.098 512.197 414.841 513.498 414.841H513.498L529.038 414.842L529.038 425.073Z" fill="#122B57"/>
<path d="M524.66 404.218L517.352 401.993C516.807 401.828 516.323 401.506 515.96 401.067C515.598 400.628 515.373 400.091 515.314 399.525L508.5 334.913C508.495 334.835 508.46 334.762 508.403 334.708C508.346 334.655 508.271 334.625 508.192 334.625C508.114 334.617 508.036 334.641 507.975 334.69C507.913 334.739 507.874 334.81 507.864 334.888L496.452 397.486C496.382 397.866 496.238 398.228 496.027 398.552C495.816 398.875 495.542 399.152 495.222 399.368C494.902 399.584 494.543 399.734 494.164 399.809C493.786 399.884 493.396 399.882 493.018 399.805L483.678 397.88C482.993 397.736 482.383 397.35 481.959 396.793C481.536 396.235 481.327 395.544 481.373 394.845L488.314 292.245L535.389 287.163L528.394 401.622C528.348 402.357 528.025 403.048 527.489 403.554C526.952 404.06 526.244 404.342 525.507 404.344C525.22 404.344 524.934 404.302 524.66 404.218Z" fill="#122B57"/>
<path d="M524.615 202.896C533.346 202.896 540.423 195.815 540.423 187.079C540.423 178.343 533.346 171.261 524.615 171.261C515.884 171.261 508.807 178.343 508.807 187.079C508.807 195.815 515.884 202.896 524.615 202.896Z" fill="#FFB8B8"/>
<path d="M488.242 292.847L498.449 228.541C498.992 225.122 500.256 221.858 502.157 218.966C504.059 216.074 506.554 213.62 509.477 211.768C512.401 209.916 515.684 208.708 519.11 208.224C522.536 207.741 526.026 207.993 529.347 208.964C535.153 210.644 540.125 214.43 543.291 219.582C546.457 224.734 547.59 230.882 546.468 236.825L535.79 294.254L488.242 292.847Z" fill="#1AAF99"/>
<path d="M528.979 304.353C529.769 303.832 530.434 303.143 530.929 302.336C531.424 301.529 531.736 300.623 531.843 299.683C531.951 298.742 531.85 297.789 531.55 296.892C531.249 295.994 530.756 295.173 530.104 294.487L540.657 274.039L528.772 275.308L520.573 294.531C519.493 295.703 518.881 297.231 518.852 298.825C518.823 300.419 519.38 301.968 520.416 303.178C521.452 304.389 522.896 305.177 524.474 305.394C526.053 305.61 527.656 305.24 528.979 304.353V304.353Z" fill="#FFB8B8"/>
<path d="M531.239 290.88C530.655 290.798 530.11 290.539 529.677 290.139L525.639 286.406C525.203 286.001 524.902 285.471 524.776 284.889C524.651 284.307 524.707 283.7 524.937 283.151L533.006 264.012L531.862 226.195C532.026 224.98 532.429 223.808 533.046 222.748C533.663 221.689 534.483 220.761 535.459 220.018C536.435 219.275 537.547 218.732 538.733 218.42C539.918 218.108 541.154 218.032 542.369 218.198C543.583 218.364 544.754 218.768 545.812 219.386C546.871 220.005 547.798 220.826 548.539 221.803C549.28 222.78 549.822 223.894 550.133 225.081C550.444 226.267 550.518 227.504 550.351 228.719L552.309 252.491C552.904 259.706 550.859 266.892 546.556 272.711L533.972 289.734C533.729 290.061 533.421 290.334 533.067 290.534C532.713 290.734 532.32 290.857 531.915 290.896C531.69 290.917 531.463 290.912 531.239 290.88Z" fill="#1AAF99"/>
<path d="M433.58 178.461C433.752 179.392 434.126 180.273 434.676 181.044C435.225 181.815 435.937 182.455 436.761 182.921C437.585 183.386 438.501 183.665 439.444 183.738C440.388 183.812 441.336 183.677 442.221 183.344L456.926 201.04L460.391 189.595L445.897 174.544C445.239 173.093 444.071 171.933 442.616 171.285C441.16 170.637 439.518 170.546 438 171.028C436.481 171.511 435.193 172.534 434.378 173.904C433.564 175.274 433.279 176.895 433.58 178.461Z" fill="#FFB8B8"/>
<path d="M445.098 185.796C445.402 185.29 445.852 184.889 446.389 184.646L451.399 182.381C451.942 182.137 452.547 182.066 453.132 182.177C453.716 182.288 454.253 182.576 454.669 183.003L469.136 197.9L504.386 211.59C505.441 212.215 506.362 213.043 507.097 214.025C507.832 215.007 508.367 216.124 508.67 217.313C508.973 218.502 509.039 219.739 508.864 220.953C508.69 222.167 508.277 223.335 507.651 224.39C507.025 225.445 506.197 226.366 505.214 227.1C504.232 227.835 503.115 228.368 501.926 228.67C500.738 228.972 499.501 229.037 498.288 228.861C497.075 228.684 495.908 228.27 494.854 227.642L472.213 220.177C465.341 217.912 459.525 213.227 455.847 206.993L445.087 188.761C444.881 188.41 444.75 188.02 444.704 187.615C444.658 187.211 444.698 186.801 444.82 186.413C444.888 186.197 444.981 185.99 445.098 185.796Z" fill="#1AAF99"/>
<path opacity="0.1" d="M537.437 241.927L536.794 262.535L524.937 283.151L534.837 260.177L537.437 241.927Z" fill="black"/>
<path d="M522.804 190.051C521.811 190.18 520.805 189.945 519.973 189.388C519.141 188.831 518.539 187.991 518.279 187.023C518.028 185.909 517.479 184.885 516.691 184.06C515.903 183.235 514.905 182.64 513.805 182.339C510.905 181.676 507.361 183.042 505.236 180.843C504.781 180.341 504.452 179.738 504.275 179.084C504.099 178.43 504.081 177.743 504.222 177.081C504.613 174.944 506.141 173.33 507.803 172.039C511.3 169.336 515.533 167.753 519.946 167.499C522.23 167.433 524.515 167.546 526.782 167.839C529.154 167.989 531.501 168.418 533.774 169.118C536.363 170.095 538.663 171.71 540.464 173.813C542.264 175.915 543.505 178.438 544.073 181.148C544.592 183.866 544.513 186.665 543.839 189.349C543.166 192.033 541.915 194.538 540.174 196.688C538.091 199.285 535.403 201.332 532.347 202.651C531.62 202.995 530.785 203.037 530.026 202.769C528.123 202.012 528.434 199.652 529.302 198.079C530.231 196.395 531.66 194.765 530.913 192.715C530.538 191.765 529.82 190.991 528.9 190.547C527.008 189.582 524.891 189.81 522.857 190.045L522.804 190.051Z" fill="#122B57"/>
<path d="M428.297 198.984H232.631C229.816 198.981 227.116 197.86 225.126 195.868C223.135 193.876 222.015 191.175 222.011 188.358V146.496C222.015 143.679 223.135 140.978 225.126 138.986C227.116 136.994 229.816 135.873 232.631 135.87H428.297C431.112 135.873 433.812 136.994 435.803 138.986C437.794 140.978 438.914 143.679 438.917 146.496V188.358C438.914 191.175 437.794 193.876 435.803 195.868C433.812 197.86 431.112 198.981 428.297 198.984Z" fill="white"/>
<path d="M428.297 199.306H232.631C229.73 199.303 226.949 198.148 224.898 196.096C222.847 194.043 221.693 191.26 221.69 188.358V146.496C221.693 143.594 222.847 140.811 224.898 138.758C226.949 136.706 229.73 135.551 232.631 135.548H428.297C431.198 135.551 433.979 136.706 436.03 138.758C438.081 140.811 439.235 143.594 439.238 146.496V188.358C439.235 191.26 438.081 194.043 436.03 196.096C433.979 198.148 431.198 199.303 428.297 199.306ZM232.631 136.836C230.072 136.839 227.618 137.858 225.808 139.669C223.998 141.48 222.98 143.935 222.977 146.496V188.358C222.98 190.919 223.998 193.374 225.808 195.185C227.618 196.996 230.072 198.015 232.631 198.018H428.297C430.856 198.015 433.31 196.996 435.12 195.185C436.93 193.374 437.948 190.919 437.951 188.358V146.496C437.948 143.935 436.93 141.48 435.12 139.669C433.31 137.858 430.856 136.839 428.297 136.836H232.631Z" fill="#EFB365"/>
<path d="M404.482 188.68H256.446C253.63 188.676 250.931 187.556 248.94 185.564C246.949 183.572 245.829 180.871 245.826 178.053V156.157C245.829 153.34 246.949 150.639 248.94 148.646C250.931 146.654 253.63 145.534 256.446 145.531H404.482C407.298 145.534 409.997 146.654 411.988 148.646C413.979 150.639 415.099 153.34 415.102 156.157V178.053C415.099 180.871 413.979 183.572 411.988 185.564C409.997 187.556 407.298 188.677 404.482 188.68Z" fill="#F2F2F2"/>
<path d="M288.303 176.878C295.317 176.878 301.003 171.188 301.003 164.17C301.003 157.151 295.317 151.462 288.303 151.462C281.288 151.462 275.602 157.151 275.602 164.17C275.602 171.188 281.288 176.878 288.303 176.878Z" fill="#FF6584"/>
<path d="M395.283 187.397L377.356 172.353L359.738 157.569C359.274 157.179 358.686 156.965 358.079 156.966C357.472 156.968 356.885 157.183 356.422 157.575L338.861 172.427L334.572 176.055L328.105 170.628L308.45 154.134C307.985 153.744 307.397 153.531 306.791 153.532C306.184 153.533 305.597 153.748 305.134 154.14L285.543 170.71L265.643 187.54C265.543 187.626 265.47 187.74 265.437 187.867C265.403 187.995 265.409 188.13 265.455 188.254C265.5 188.378 265.583 188.485 265.691 188.561C265.799 188.636 265.928 188.676 266.06 188.676L306.858 188.598L319.772 188.573L319.646 188.68L358.14 188.605L394.87 188.535C395.002 188.534 395.131 188.493 395.239 188.418C395.347 188.342 395.429 188.234 395.474 188.11C395.519 187.986 395.525 187.851 395.491 187.723C395.456 187.596 395.384 187.482 395.283 187.397Z" fill="#EFB365"/>
<path d="M563.356 426H439.778C439.608 426 439.444 425.932 439.323 425.811C439.202 425.691 439.135 425.527 439.135 425.356C439.135 425.185 439.202 425.021 439.323 424.901C439.444 424.78 439.608 424.712 439.778 424.712H563.356C563.527 424.712 563.691 424.78 563.811 424.901C563.932 425.021 564 425.185 564 425.356C564 425.527 563.932 425.691 563.811 425.811C563.691 425.932 563.527 426 563.356 426Z" fill="#CCCCCC"/>
<path d="M388.792 84.9538C388.278 84.118 387.599 83.3957 386.797 82.831C385.995 82.2663 385.086 81.871 384.126 81.6693C383.774 81.5954 383.417 81.5501 383.058 81.5341L334.019 37.6636C333.056 36.673 331.771 36.0587 330.395 35.9312C330.124 35.9 329.851 35.8914 329.578 35.9055C328.446 35.9569 327.354 36.3371 326.435 36.9996C325.517 37.6621 324.81 38.5781 324.403 39.6357C323.997 40.6933 323.906 41.8466 324.144 42.9547C324.382 44.0627 324.937 45.0775 325.742 45.8748L344.517 62.2522L375.347 89.1399C375.372 89.6464 375.447 90.149 375.572 90.6405C375.941 92.0644 376.734 93.3424 377.845 94.305C378.957 95.2677 380.335 95.8696 381.796 96.0309C383.129 96.1867 384.478 95.9635 385.69 95.3869C386.651 94.9373 387.503 94.2848 388.187 93.4742C388.258 93.3905 388.322 93.3132 388.387 93.223C389.287 92.0495 389.808 90.6292 389.88 89.1518C389.953 87.6743 389.573 86.2099 388.792 84.9538H388.792Z" fill="#FFB8B8"/>
<path d="M304.914 127.234L304.457 108.647L304.07 93.223L303.806 82.4292L303.285 61.3892C303.182 60.2627 302.753 59.1906 302.051 58.3038C301.35 57.417 300.405 56.7539 299.333 56.3953C298.26 56.0368 297.107 55.9984 296.013 56.2848C294.92 56.5712 293.933 57.17 293.174 58.0081C292.995 58.1996 292.833 58.4065 292.691 58.6264C291.898 59.7619 291.542 61.1453 291.687 62.5227L292.833 93.223L293.405 108.647L294.139 128.322C293.927 128.611 293.736 128.914 293.566 129.23C293.109 130.098 292.832 131.051 292.753 132.03C292.675 133.008 292.796 133.993 293.109 134.923C293.436 135.899 293.966 136.794 294.664 137.55C295.362 138.306 296.212 138.906 297.158 139.309C298.104 139.712 299.125 139.911 300.154 139.891C301.182 139.871 302.194 139.633 303.124 139.193C304.204 138.682 305.142 137.913 305.854 136.953C306.566 135.994 307.032 134.873 307.208 133.691C307.385 132.509 307.269 131.301 306.868 130.175C306.468 129.049 305.797 128.039 304.914 127.234H304.914Z" fill="#FFB8B8"/>
<path d="M349.067 74.5853L344.516 62.2523L337.153 42.2749C336.622 40.8214 335.77 39.5062 334.662 38.427C333.553 37.3478 332.216 36.5322 330.749 36.0408C330.633 36.0022 330.511 35.9635 330.395 35.9313C328.974 35.4998 327.477 35.3811 326.006 35.5835C324.535 35.7858 323.125 36.3043 321.874 37.1034L297.074 52.8432C294.803 54.2814 293.179 56.5466 292.546 59.1604C291.914 61.7741 292.321 64.5317 293.682 66.8506C296.783 72.2164 300.163 77.4164 303.807 82.4294C306.697 86.3643 312.077 86.7829 313.011 93.2231H331.296L349.807 76.5946L349.067 74.5853Z" fill="#CCCCCC"/>
<path d="M65.1132 225.312C73.3501 225.312 80.0273 218.631 80.0273 210.389C80.0273 202.147 73.3501 195.466 65.1132 195.466C56.8764 195.466 50.1991 202.147 50.1991 210.389C50.1991 218.631 56.8764 225.312 65.1132 225.312Z" fill="#A0616A"/>
<path d="M101.728 200.117C101.874 200.234 102.017 200.358 102.155 200.489C102.84 201.135 103.381 201.918 103.743 202.788C104.104 203.657 104.278 204.594 104.252 205.535C104.227 206.477 104.003 207.402 103.595 208.251C103.188 209.1 102.605 209.853 101.886 210.461C101.719 210.602 101.544 210.733 101.363 210.856L102.372 244.953C102.401 246.07 102.069 247.165 101.426 248.078C100.783 248.991 99.8633 249.672 98.803 250.02L98.7415 250.033L71.0725 252.981C70.3202 253.061 69.5596 252.992 68.8345 252.776C68.1094 252.56 67.4342 252.203 66.8478 251.725C66.2615 251.246 65.7757 250.656 65.4184 249.989C65.0611 249.322 64.8395 248.591 64.7663 247.837C64.6931 247.084 64.7697 246.323 64.9919 245.6C65.214 244.876 65.5772 244.204 66.0605 243.622C66.5437 243.039 67.1375 242.559 67.8075 242.207C68.4775 241.856 69.2105 241.64 69.964 241.574L89.6878 239.836L93.0988 210.307C92.8757 210.109 92.6667 209.896 92.4735 209.669C91.404 208.403 90.8431 206.784 90.8996 205.127C90.9562 203.47 91.6262 201.893 92.7796 200.702C93.9329 199.512 95.4873 198.793 97.1408 198.684C98.7944 198.576 100.429 199.087 101.728 200.117H101.728Z" fill="#A0616A"/>
<path d="M89.6765 418.079H97.1215L100.663 389.348H89.6752L89.6765 418.079Z" fill="#A0616A"/>
<path d="M87.7779 415.648L102.439 415.647H102.439C103.666 415.647 104.881 415.889 106.015 416.359C107.148 416.828 108.178 417.517 109.046 418.385C109.913 419.253 110.602 420.284 111.071 421.418C111.541 422.552 111.782 423.768 111.782 424.995V425.299L87.7783 425.3L87.7779 415.648Z" fill="#122B57"/>
<path d="M15.6828 407.78L22.0793 411.591L39.8134 388.717L30.3725 383.093L15.6828 407.78Z" fill="#A0616A"/>
<path d="M15.2947 404.719L27.8917 412.223L27.8922 412.224C28.9464 412.852 29.8667 413.682 30.6005 414.665C31.3342 415.649 31.8671 416.768 32.1687 417.958C32.4702 419.148 32.5346 420.386 32.3581 421.601C32.1816 422.816 31.7676 423.984 31.1399 425.039L30.9845 425.3L10.3596 413.013L15.2947 404.719Z" fill="#122B57"/>
<path d="M98.8779 407.931H90.5417C89.8667 407.932 89.2153 407.683 88.7134 407.231C88.2115 406.78 87.8948 406.158 87.8246 405.486L79.4205 326.441C79.3993 326.242 79.3133 326.056 79.1757 325.911C79.0381 325.765 78.8565 325.67 78.6591 325.638C78.4616 325.606 78.2592 325.64 78.0831 325.735C77.907 325.83 77.7669 325.98 77.6846 326.162L62.5234 359.753L35.6815 403.548C35.3341 404.11 34.7962 404.527 34.1663 404.724C33.5365 404.921 32.8568 404.885 32.2516 404.621L21.5285 399.9C21.1739 399.744 20.8566 399.514 20.5976 399.226C20.3385 398.938 20.1437 398.598 20.0259 398.229C19.9081 397.859 19.8702 397.469 19.9146 397.084C19.9589 396.699 20.0846 396.328 20.2832 395.995L44.9583 354.654L52.526 319.822C50.1458 304.717 60.3494 282.26 60.4529 282.034L60.5034 281.924L88.6094 270.932L88.7503 271.105C99.8345 307.501 106.589 346.669 101.602 405.426C101.54 406.108 101.227 406.742 100.723 407.205C100.22 407.669 99.5619 407.927 98.8779 407.931Z" fill="#122B57"/>
<path d="M59.3711 285.605L59.2402 285.329C59.1776 285.198 52.928 272.009 48.1104 257.913C47.1846 255.187 46.8345 252.298 47.0826 249.43C47.3306 246.562 48.1712 243.776 49.5513 241.25C50.9492 238.697 52.8618 236.463 55.1677 234.689C57.4736 232.915 60.1226 231.639 62.947 230.943C67.8502 229.767 73.0124 230.392 77.4932 232.706C81.974 235.019 85.4751 238.866 87.3587 243.546C91.1801 253.108 89.9622 263.314 88.8161 271.34L88.7932 271.501L88.6471 271.571L59.3711 285.605Z" fill="#EFB365"/>
<path d="M83.1961 201.96H59.5143V191.631C64.7122 189.564 69.7986 187.807 72.8733 191.631C75.611 191.631 78.2367 192.719 80.1726 194.656C82.1085 196.593 83.1961 199.22 83.1961 201.96V201.96Z" fill="#122B57"/>
<path d="M58.2032 189.808C44.0457 189.808 40.083 207.564 40.083 217.581C40.083 223.168 42.608 225.166 46.5757 225.842L47.977 218.364L51.2589 226.164C52.3734 226.169 53.5443 226.148 54.7582 226.125L55.8709 223.832L58.3523 226.084C68.2906 226.099 76.323 227.548 76.323 217.581C76.323 207.564 72.8478 189.808 58.2032 189.808Z" fill="#122B57"/>
<path d="M124.222 426H0.643636C0.472933 426 0.309221 425.932 0.188516 425.811C0.067811 425.691 0 425.527 0 425.356C0 425.185 0.067811 425.021 0.188516 424.901C0.309221 424.78 0.472933 424.712 0.643636 424.712H124.222C124.392 424.712 124.556 424.78 124.677 424.901C124.798 425.021 124.865 425.185 124.865 425.356C124.865 425.527 124.798 425.691 124.677 425.811C124.556 425.932 124.392 426 124.222 426Z" fill="#CCCCCC"/>
<path d="M126.545 214.118H98.8691C97.2479 214.116 95.6938 213.471 94.5475 212.324C93.4012 211.177 92.7564 209.622 92.7545 208V180.307C92.7564 178.685 93.4012 177.13 94.5475 175.983C95.6938 174.836 97.2479 174.191 98.8691 174.189H126.545C128.167 174.191 129.721 174.836 130.867 175.983C132.013 177.13 132.658 178.685 132.66 180.307V208C132.658 209.622 132.013 211.177 130.867 212.324C129.721 213.471 128.167 214.116 126.545 214.118Z" fill="white"/>
<path d="M126.545 214.118H98.8691C97.2479 214.116 95.6938 213.471 94.5475 212.324C93.4012 211.177 92.7564 209.622 92.7545 208V180.307C92.7564 178.685 93.4012 177.13 94.5475 175.983C95.6938 174.836 97.2479 174.191 98.8691 174.189H126.545C128.167 174.191 129.721 174.836 130.867 175.983C132.013 177.13 132.658 178.685 132.66 180.307V208C132.658 209.622 132.013 211.177 130.867 212.324C129.721 213.471 128.167 214.116 126.545 214.118ZM98.8691 175.477C97.5892 175.479 96.3622 175.988 95.4572 176.894C94.5523 177.799 94.0432 179.027 94.0418 180.307V208C94.0432 209.281 94.5523 210.508 95.4572 211.414C96.3622 212.319 97.5892 212.829 98.8691 212.83H126.545C127.825 212.829 129.052 212.319 129.957 211.414C130.862 210.508 131.371 209.281 131.373 208V180.307C131.371 179.027 130.862 177.799 129.957 176.894C129.052 175.988 127.825 175.479 126.545 175.477H98.8691Z" fill="#EFB365"/>
<path d="M121.718 202.848H103.696C103.184 202.847 102.694 202.644 102.332 202.281C101.97 201.919 101.766 201.428 101.765 200.916V187.392C101.766 186.879 101.97 186.388 102.332 186.026C102.694 185.664 103.184 185.46 103.696 185.459H108.77C109.1 185.458 109.424 185.542 109.713 185.703C110.001 185.864 110.242 186.097 110.414 186.379L111.829 188.68H121.718C122.23 188.68 122.721 188.884 123.083 189.246C123.445 189.608 123.649 190.099 123.649 190.612V200.916C123.649 201.428 123.445 201.919 123.083 202.281C122.721 202.644 122.23 202.847 121.718 202.848Z" fill="#1AAF99"/>
<path d="M121.132 209.681C121.222 209.845 121.305 210.015 121.381 210.19C121.762 211.051 121.957 211.983 121.953 212.925C121.949 213.866 121.746 214.797 121.358 215.655C120.969 216.512 120.404 217.278 119.699 217.902C118.994 218.527 118.165 218.994 117.267 219.276C117.058 219.34 116.846 219.394 116.631 219.436L104.338 251.254C103.931 252.294 103.201 253.175 102.254 253.767C101.308 254.358 100.196 254.628 99.0837 254.538L99.0219 254.526L72.3776 246.5C71.6531 246.282 70.9791 245.922 70.3944 245.442C69.8097 244.962 69.3259 244.37 68.9709 243.702C68.6159 243.033 68.3969 242.301 68.3263 241.547C68.2557 240.793 68.3351 240.033 68.5598 239.31C68.7845 238.588 69.1501 237.917 69.6355 237.336C70.1209 236.755 70.7165 236.277 71.3878 235.928C72.0591 235.578 72.7928 235.366 73.5467 235.302C74.3006 235.239 75.0596 235.325 75.7799 235.556L94.6322 241.613L109.228 215.722C109.099 215.453 108.989 215.176 108.898 214.891C108.404 213.309 108.515 211.599 109.21 210.094C109.905 208.589 111.134 207.395 112.658 206.746C114.183 206.097 115.894 206.037 117.46 206.58C119.026 207.122 120.335 208.227 121.132 209.681H121.132Z" fill="#A0616A"/>
</g>
<defs>
<clipPath id="clip0_1023_4158">
<rect width="564" height="426" fill="white"/>
</clipPath>
</defs>
</svg>
