<svg width="24" height="24" viewBox="0 0 24 24" fill="none" xmlns="http://www.w3.org/2000/svg">
<path fill-rule="evenodd" clip-rule="evenodd" d="M18 8C18 7.60218 18.158 7.22064 18.4393 6.93934C18.7206 6.65804 19.1022 6.5 19.5 6.5C19.8978 6.5 20.2794 6.65804 20.5607 6.93934C20.842 7.22064 21 7.60218 21 8V18.1515L19.5 20.4015L18 18.1515V8ZM19.5 7.5C19.3674 7.5 19.2402 7.55268 19.1464 7.64645C19.0527 7.74021 19 7.86739 19 8V17.8485L19.5 18.5985L20 17.8485V8C20 7.86739 19.9473 7.74021 19.8536 7.64645C19.7598 7.55268 19.6326 7.5 19.5 7.5Z" fill="#0A0A09"/>
<path fill-rule="evenodd" clip-rule="evenodd" d="M20.5 10H18.5V9H20.5V10ZM5 4C4.73478 4 4.48043 4.10536 4.29289 4.29289C4.10536 4.48043 4 4.73478 4 5V19C4 19.2652 4.10536 19.5196 4.29289 19.7071C4.48043 19.8946 4.73478 20 5 20H15C15.2652 20 15.5196 19.8946 15.7071 19.7071C15.8946 19.5196 16 19.2652 16 19V5C16 4.73478 15.8946 4.48043 15.7071 4.29289C15.5196 4.10536 15.2652 4 15 4H5ZM3 5C3 4.46957 3.21071 3.96086 3.58579 3.58579C3.96086 3.21071 4.46957 3 5 3H15C15.5304 3 16.0391 3.21071 16.4142 3.58579C16.7893 3.96086 17 4.46957 17 5V19C17 19.5304 16.7893 20.0391 16.4142 20.4142C16.0391 20.7893 15.5304 21 15 21H5C4.46957 21 3.96086 20.7893 3.58579 20.4142C3.21071 20.0391 3 19.5304 3 19V5Z" fill="#0A0A09"/>
<path fill-rule="evenodd" clip-rule="evenodd" d="M10 7.5C10 7.36739 10.0527 7.24021 10.1465 7.14645C10.2403 7.05268 10.3674 7 10.5 7H14.5C14.6326 7 14.7598 7.05268 14.8536 7.14645C14.9474 7.24021 15 7.36739 15 7.5C15 7.63261 14.9474 7.75979 14.8536 7.85355C14.7598 7.94732 14.6326 8 14.5 8H10.5C10.3674 8 10.2403 7.94732 10.1465 7.85355C10.0527 7.75979 10 7.63261 10 7.5ZM10 9.5C10 9.36739 10.0527 9.24021 10.1465 9.14645C10.2403 9.05268 10.3674 9 10.5 9H14.5C14.6326 9 14.7598 9.05268 14.8536 9.14645C14.9474 9.24021 15 9.36739 15 9.5C15 9.63261 14.9474 9.75979 14.8536 9.85355C14.7598 9.94732 14.6326 10 14.5 10H10.5C10.3674 10 10.2403 9.94732 10.1465 9.85355C10.0527 9.75979 10 9.63261 10 9.5ZM10 14C10 13.8674 10.0527 13.7402 10.1465 13.6464C10.2403 13.5527 10.3674 13.5 10.5 13.5H14.5C14.6326 13.5 14.7598 13.5527 14.8536 13.6464C14.9474 13.7402 15 13.8674 15 14C15 14.1326 14.9474 14.2598 14.8536 14.3536C14.7598 14.4473 14.6326 14.5 14.5 14.5H10.5C10.3674 14.5 10.2403 14.4473 10.1465 14.3536C10.0527 14.2598 10 14.1326 10 14ZM10 16C10 15.8674 10.0527 15.7402 10.1465 15.6464C10.2403 15.5527 10.3674 15.5 10.5 15.5H14.5C14.6326 15.5 14.7598 15.5527 14.8536 15.6464C14.9474 15.7402 15 15.8674 15 16C15 16.1326 14.9474 16.2598 14.8536 16.3536C14.7598 16.4473 14.6326 16.5 14.5 16.5H10.5C10.3674 16.5 10.2403 16.4473 10.1465 16.3536C10.0527 16.2598 10 16.1326 10 16ZM6.00004 14V15.5H7.50004V14H6.00004ZM5.50004 13H8.00004C8.13265 13 8.25983 13.0527 8.35359 13.1464C8.44736 13.2402 8.50004 13.3674 8.50004 13.5V16C8.50004 16.1326 8.44736 16.2598 8.35359 16.3536C8.25983 16.4473 8.13265 16.5 8.00004 16.5H5.50004C5.36743 16.5 5.24026 16.4473 5.14649 16.3536C5.05272 16.2598 5.00004 16.1326 5.00004 16V13.5C5.00004 13.3674 5.05272 13.2402 5.14649 13.1464C5.24026 13.0527 5.36743 13 5.50004 13V13ZM8.85354 7.1465C8.94728 7.24026 8.99993 7.36742 8.99993 7.5C8.99993 7.63258 8.94728 7.75974 8.85354 7.8535L6.50004 10.207L5.14654 8.8535C5.09879 8.80738 5.06069 8.7522 5.03449 8.6912C5.00829 8.6302 4.99449 8.56459 4.99392 8.4982C4.99334 8.43181 5.00599 8.36597 5.03113 8.30452C5.05627 8.24308 5.0934 8.18725 5.14034 8.1403C5.18729 8.09336 5.24312 8.05623 5.30456 8.03109C5.36601 8.00595 5.43185 7.9933 5.49824 7.99387C5.56463 7.99445 5.63024 8.00825 5.69124 8.03445C5.75224 8.06065 5.80742 8.09874 5.85354 8.1465L6.50004 8.793L8.14654 7.1465C8.2403 7.05276 8.36746 7.00011 8.50004 7.00011C8.63262 7.00011 8.75978 7.05276 8.85354 7.1465V7.1465Z" fill="#0A0A09"/>
</svg>

