<svg width="24" height="24" viewBox="0 0 24 24" fill="none" xmlns="http://www.w3.org/2000/svg">
<path d="M3.42858 2.57144H5.13429C5.56664 2.57152 5.98299 2.73496 6.29994 3.02902C6.61688 3.32307 6.81101 3.72603 6.84344 4.15716L6.84858 4.28573V19.7143C6.84828 20.1467 6.68466 20.5631 6.39046 20.88C6.09627 21.1969 5.69322 21.391 5.26201 21.4234L5.13344 21.4286H3.42858C2.99629 21.4283 2.58005 21.2648 2.26315 20.9708C1.94625 20.6768 1.75206 20.2739 1.71944 19.8429L1.71429 19.7143V4.28573C1.71416 3.85323 1.8775 3.43667 2.17158 3.11954C2.46566 2.80242 2.86873 2.60816 3.30001 2.57573L3.42858 2.57144H5.13429H3.42858ZM9.42429 2.57144H11.1343C11.5666 2.57152 11.983 2.73496 12.2999 3.02902C12.6169 3.32307 12.811 3.72603 12.8434 4.15716L12.8486 4.28573V19.7143C12.8483 20.1467 12.6847 20.5631 12.3905 20.88C12.0963 21.1969 11.6932 21.391 11.262 21.4234L11.1334 21.4286H9.42429C8.9918 21.4287 8.57524 21.2654 8.25811 20.9713C7.94098 20.6772 7.74673 20.2741 7.71429 19.8429L7.71001 19.7143V4.28573C7.70987 3.85323 7.87321 3.43667 8.16729 3.11954C8.46137 2.80242 8.86445 2.60816 9.29572 2.57573L9.42429 2.57144H11.1343H9.42429ZM17.2543 4.30801C17.9777 4.30801 18.6394 4.76916 18.8769 5.47373L18.9163 5.6083L22.2249 18.8794C22.3298 19.2991 22.2722 19.7429 22.0637 20.1219C21.8551 20.5009 21.511 20.787 21.1003 20.9229L20.9769 20.958L19.2943 21.378C18.8767 21.4816 18.4355 21.4246 18.0579 21.2182C17.6804 21.0118 17.3942 20.6712 17.256 20.2637L17.2166 20.1283L13.908 6.85716C13.8033 6.43751 13.8612 5.99382 14.0699 5.61501C14.2786 5.23621 14.6228 4.95029 15.0334 4.81458L15.156 4.77858L16.8386 4.35944C16.9774 4.32516 17.1172 4.30801 17.2543 4.30801ZM5.13429 3.85716H3.42858C3.32836 3.85746 3.23139 3.89273 3.1544 3.95689C3.07741 4.02104 3.02523 4.11006 3.00687 4.20858L3.00001 4.28573V19.7143C3.00001 19.9234 3.15258 20.1 3.35144 20.136L3.42858 20.1429H5.13429C5.34429 20.1429 5.52001 19.9903 5.55601 19.7914L5.56287 19.7143V4.28573C5.56273 4.18546 5.52752 4.08841 5.46333 4.01139C5.39915 3.93436 5.31003 3.88222 5.21144 3.86401L5.13429 3.85716ZM11.1343 3.85716H9.42429C9.32403 3.85729 9.22698 3.8925 9.14995 3.95669C9.07293 4.02087 9.02079 4.10999 9.00258 4.20858L8.99572 4.28573V19.7143C8.99572 19.9234 9.14744 20.1 9.34715 20.136L9.42429 20.1429H11.1343C11.3443 20.1429 11.52 19.9903 11.556 19.7914L11.5629 19.7143V4.28573C11.5627 4.18546 11.5275 4.08841 11.4633 4.01139C11.3991 3.93436 11.31 3.88222 11.2114 3.86401L11.1343 3.85716ZM17.2543 5.59373L17.202 5.59716L17.1489 5.60658L15.4672 6.02658C15.3698 6.05086 15.2841 6.1085 15.2249 6.18947C15.1657 6.27045 15.1368 6.36962 15.1432 6.46973L15.1552 6.54516L18.4637 19.8172C18.5194 20.04 18.7183 20.1429 18.8786 20.1429L18.9317 20.1403L18.9832 20.1292L20.6657 19.71C20.7629 19.6858 20.8485 19.6283 20.9077 19.5475C20.9669 19.4667 20.9959 19.3677 20.9897 19.2677L20.9777 19.1906L17.6692 5.91858C17.6463 5.82582 17.593 5.7434 17.5178 5.68451C17.4426 5.62561 17.3498 5.59365 17.2543 5.59373Z" fill="#0A0A09"/>
</svg>
