<svg width="24" height="20" viewBox="0 0 24 20" fill="none" xmlns="http://www.w3.org/2000/svg">
<g clip-path="url(#clip0_18_161)">
<path d="M14.5714 14.1428V16.2857C14.5714 16.854 14.3456 17.3991 13.9437 17.8009C13.5419 18.2028 12.9968 18.4286 12.4285 18.4286H3.85709C3.28877 18.4286 2.74373 18.2028 2.34186 17.8009C1.94 17.3991 1.71423 16.854 1.71423 16.2857V3.42856C1.71423 2.86024 1.94 2.3152 2.34186 1.91333C2.74373 1.51147 3.28877 1.28571 3.85709 1.28571H11.9999C13.1833 1.28571 14.5714 2.24517 14.5714 3.42856V5.57142M17.9999 14.1428L22.2857 9.85713L17.9999 5.57142M7.71423 9.85713H21.4285" stroke="#0A0A09" stroke-width="1.3" stroke-linecap="round" stroke-linejoin="round"/>
</g>
<defs>
<clipPath id="clip0_18_161">
<rect width="24" height="19.7143" fill="white"/>
</clipPath>
</defs>
</svg>
