<svg width="24" height="24" viewBox="0 0 24 24" fill="none" xmlns="http://www.w3.org/2000/svg">
<path d="M13.8 4.8C13.8 4.32261 13.6104 3.86478 13.2728 3.52721C12.9352 3.18965 12.4774 3 12 3C11.5226 3 11.0648 3.18965 10.7272 3.52721C10.3896 3.86478 10.2 4.32261 10.2 4.8H9C9 4.00435 9.31607 3.24129 9.87868 2.67868C10.4413 2.11607 11.2044 1.8 12 1.8C12.7956 1.8 13.5587 2.11607 14.1213 2.67868C14.6839 3.24129 15 4.00435 15 4.8H20.4C20.5591 4.8 20.7117 4.86322 20.8243 4.97574C20.9368 5.08826 21 5.24087 21 5.4C21 5.55913 20.9368 5.71175 20.8243 5.82427C20.7117 5.93679 20.5591 6 20.4 6H19.7352L18.18 19.476C18.1123 20.0609 17.8319 20.6005 17.3923 20.9921C16.9527 21.3837 16.3844 21.6001 15.7956 21.6H8.2044C7.61562 21.6001 7.04735 21.3837 6.6077 20.9921C6.16806 20.6005 5.88771 20.0609 5.82 19.476L4.2636 6H3.6C3.45957 6.00005 3.32357 5.95084 3.21569 5.86094C3.10781 5.77103 3.03488 5.64614 3.0096 5.508L3 5.4C3 5.24087 3.06321 5.08826 3.17574 4.97574C3.28826 4.86322 3.44087 4.8 3.6 4.8H13.8ZM18.5256 6H5.4732L7.0116 19.338C7.04547 19.6305 7.18573 19.9004 7.40567 20.0962C7.62562 20.2921 7.90991 20.4002 8.2044 20.4H15.7956C16.0899 20.3999 16.3739 20.2917 16.5936 20.0958C16.8133 19.9 16.9534 19.6303 16.9872 19.338L18.5256 6ZM10.2 9C10.494 9 10.74 9.186 10.7904 9.4308L10.8 9.5256V16.8756C10.8 17.1648 10.5312 17.4 10.2 17.4C9.906 17.4 9.66 17.214 9.6096 16.9692L9.6 16.8744V9.5268C9.6 9.2364 9.8688 9.0012 10.2 9.0012V9ZM13.8 9C14.094 9 14.34 9.186 14.3904 9.4308L14.4 9.5256V16.8756C14.4 17.1648 14.1312 17.4 13.8 17.4C13.506 17.4 13.26 17.214 13.2096 16.9692L13.2 16.8744V9.5268C13.2 9.2364 13.4688 9.0012 13.8 9.0012V9Z" fill="#0A0A09"/>
</svg>
