<svg width="142" height="120" viewBox="0 0 142 120" fill="none" xmlns="http://www.w3.org/2000/svg">
<path d="M16.3524 30.4159C16.227 31.1773 16.2701 31.957 16.4786 32.6999C16.6871 33.4429 17.0559 34.1311 17.5592 34.716C18.0624 35.301 18.6878 35.7685 19.3913 36.0857C20.0948 36.4028 20.8592 36.5618 21.6308 36.5516L34.5607 74.1741L42.8109 68.5041L26.8844 30.823C26.7812 29.5279 26.2066 28.3157 25.2694 27.416C24.3321 26.5163 23.0974 25.9916 21.7992 25.9415C20.501 25.8913 19.2295 26.3191 18.2256 27.1437C17.2217 27.9684 16.5552 29.1327 16.3524 30.4159V30.4159Z" fill="#A0616A"/>
<path d="M83.8384 43.1452C78.0965 49.6779 63.9383 61.1904 52.2747 69.1179C49.7537 70.8313 47.3476 72.3747 45.1693 73.6663C43.6978 74.5387 42.3295 75.2935 41.0977 75.9094C40.271 76.3213 39.3681 76.5579 38.4457 76.6047C37.5232 76.6514 36.601 76.5071 35.7369 76.1809C34.8728 75.8547 34.0854 75.3536 33.4239 74.7089C32.7625 74.0643 32.2413 73.29 31.8929 72.4346L23.8169 52.8963L26.6112 51.0438L33.5009 46.4738L35.0658 45.4385L41.5267 60.8262L48.3398 55.3575L52.5695 51.9617L71.8513 36.4878L73.5145 35.9941L77.3943 39.7805L80.1382 42.4598L82.7192 42.9079C83.1051 42.975 83.4789 43.0541 83.8384 43.1452Z" fill="#EFB365"/>
<path d="M135.354 96.8293C135.754 97.3373 136.169 97.843 136.583 98.351C135.155 101.283 133.55 104.126 131.776 106.863C131.644 106.77 131.512 106.676 131.38 106.583C131.36 106.571 131.34 106.559 131.321 106.545C130.829 106.195 130.336 105.85 129.844 105.5V105.497C129.439 104.118 129.213 102.692 129.171 101.256C129.424 101.197 129.654 101.063 129.828 100.87C130.002 100.677 130.113 100.435 130.145 100.177C130.177 99.9193 130.129 99.6577 130.008 99.4279C129.886 99.1981 129.697 99.0112 129.466 98.8926C129.401 98.78 129.355 98.6985 129.291 98.5835C129.293 98.5547 129.298 98.5236 129.3 98.4948C129.677 95.5017 133.492 94.4568 135.354 96.8293Z" fill="white"/>
<path d="M139.655 86.5722C139.943 87.363 140.205 88.1627 140.441 88.9711C140.278 89.4503 140.112 89.928 139.941 90.4041C139.876 90.1525 139.809 89.9009 139.739 89.6492C139.349 88.2501 138.881 86.874 138.337 85.5274C137.892 84.4226 137.398 83.341 136.856 82.2826C133.911 76.5326 129.644 71.5636 124.404 67.784C122.239 67.2833 120.279 66.1307 118.79 64.4817C118.252 63.8892 117.803 63.2226 117.455 62.5023C117.675 62.4711 117.896 62.428 118.111 62.3824C118.178 62.3681 118.248 62.3513 118.315 62.3369L118.341 62.3321C118.577 62.2774 118.792 62.1558 118.96 61.9819C119.129 61.8079 119.243 61.589 119.29 61.3516C119.337 61.1141 119.314 60.8682 119.224 60.6433C119.135 60.4185 118.982 60.2244 118.785 60.0843C118.663 59.9956 118.538 59.9093 118.416 59.823C118.229 59.6864 118.039 59.557 117.85 59.4228C117.83 59.4104 117.811 59.3968 117.793 59.3821C117.577 59.2287 117.361 59.0801 117.148 58.9244C117.313 58.3904 117.6 57.9017 117.984 57.4961C119.324 56.1133 121.716 56.1445 123.278 57.2708C124.843 58.3972 125.629 60.3694 125.73 62.2914C125.818 63.9378 125.464 65.5673 124.996 67.1562C125.114 67.2425 125.236 67.3239 125.353 67.4126C127.511 69.0116 129.506 70.8184 131.311 72.807C130.269 70.3339 129.89 67.1083 130.161 64.8867C130.47 62.3561 131.699 59.9525 132.706 57.5584C133.911 54.6827 138.023 54.6443 139.183 57.5392C139.195 57.568 139.207 57.5943 139.217 57.6231C139.023 57.8172 138.836 58.0185 138.656 58.227C138.43 58.4897 138.289 58.8144 138.251 59.1587C138.213 59.5029 138.28 59.8506 138.443 60.1562C138.606 60.4618 138.857 60.7111 139.164 60.8715C139.471 61.0318 139.82 61.0957 140.163 61.0548L140.199 61.05C140.349 61.9044 140.434 62.7687 140.453 63.6358C140.483 66.0617 140.011 68.4676 139.068 70.7026C138.124 72.9377 136.729 74.9538 134.97 76.6246C134.855 76.7324 134.743 76.8378 134.625 76.9409C135.735 78.5196 136.732 80.1749 137.609 81.8943C138.387 83.41 139.07 84.9722 139.655 86.5722V86.5722Z" fill="white"/>
<path d="M93.4795 64.0901L92.7558 113.795L34.292 112.117L43.6286 91.5079C43.5615 90.8465 47.7265 86.2045 47.7025 85.5168C47.6306 83.5013 49.1356 81.6345 49.38 79.5256C49.8785 75.1761 47.0243 58.7508 48.34 55.3574C48.9004 53.8422 49.6185 52.3899 50.4824 51.0247C51.2301 49.8936 51.997 49.1315 52.7303 48.8559L54.8919 43.8186L56.809 40.9428L71.8515 36.4878L73.5147 35.9941L77.3945 39.7805L80.1385 42.4598L82.7194 42.9079C83.1053 42.975 83.4791 43.0541 83.8386 43.1452C85.5699 43.5444 87.1835 44.3438 88.55 45.4793C93.0553 49.3064 93.5802 56.5054 93.4795 64.0901Z" fill="#EFB365"/>
<path d="M127.055 113.422C125.406 115.49 123.659 117.473 121.814 119.37L115.492 119.375L81.4936 119.413L75.373 119.42L71.3039 119.425L65.2504 119.43L60.5941 119.435L51.9933 119.444L46.92 119.451L36.2366 119.461L31.137 119.468L17.0051 119.482L8.12865 119.492L5.74658 119.494C5.21697 118.953 4.69534 118.403 4.1817 117.846C2.902 116.458 1.67102 115.027 0.48877 113.554L5.42067 113.549L8.78049 113.546L16.5594 113.537L31.5707 113.523L36.644 113.518L38.6954 113.515H38.7026L40.313 113.513L41.0343 113.511L42.882 113.508H43.6632L49.1415 113.503L60.9584 113.489L66.1587 113.484L71.1385 113.479L75.8068 113.475L82.5049 113.467L118.279 113.431L127.055 113.422Z" fill="#CCCCCC"/>
<path d="M46.1689 38.7891L46.1559 38.7903C45.4646 38.8546 44.776 38.6417 44.2417 38.1983C43.7073 37.755 43.371 37.1175 43.3067 36.4262L41.9438 21.8798C41.6971 19.2739 41.977 16.645 42.7666 14.1495C44.3144 9.2788 47.6821 5.1933 52.1678 2.7444C54.484 1.48326 57.0316 0.704151 59.657 0.454024C70.3978 -0.56926 74.3229 1.66773 80.9577 18.0491C87.5926 34.4304 82.3226 32.6176 82.3226 32.6176C82.3559 32.9681 82.3182 33.3218 82.2118 33.6575C82.0029 34.3124 81.5491 34.8613 80.9452 35.1896C80.6352 35.3576 80.2947 35.4617 79.9438 35.4955C67.2458 38.7232 54.4332 42.1207 46.1668 38.7893L46.1689 38.7891Z" fill="#2F2E41"/>
<path d="M69.803 14.2368C71.3969 16.5952 72.2563 19.3731 72.2724 22.2195C72.2886 25.066 71.4608 27.8534 69.8937 30.2297C68.3267 32.606 66.0905 34.4646 63.4677 35.5708C60.845 36.677 57.9532 36.9812 55.1577 36.4448C53.3071 36.0958 51.5442 35.3831 49.9711 34.3479C48.398 33.3127 47.046 31.9756 45.9933 30.4141C44.4027 28.0565 43.5457 25.2808 43.5305 22.4368C43.5152 19.5929 44.3423 16.8081 45.9075 14.4336C47.4727 12.059 49.706 10.2011 52.3256 9.094C54.9453 7.9869 57.8341 7.68021 60.6278 8.21261C62.4798 8.55955 64.2445 9.27076 65.8195 10.305C67.3946 11.3392 68.7486 12.6758 69.8031 14.2374L69.803 14.2368Z" fill="#9E616A"/>
<path d="M37.4407 23.4955C37.2458 21.4345 37.4671 19.3554 38.0916 17.3817C38.2364 12.5535 39.6372 8.18034 45.526 8.36389C47.3463 7.37365 49.3472 6.75966 51.4097 6.55847L54.3197 6.2711C54.3524 6.26785 54.3851 6.2647 54.4178 6.26166C56.434 6.07402 58.4673 6.28533 60.4018 6.88351C62.3362 7.4817 64.134 8.45505 65.6923 9.748C67.2506 11.0409 68.539 12.6282 69.4839 14.419C70.4288 16.2099 71.0117 18.1693 71.1993 20.1855L71.2266 20.4768L65.0698 21.0787L62.4201 15.4083L62.5508 21.3262L59.371 21.6383L58.0347 18.7774L58.0999 21.7612C53.3786 25.9194 46.2192 26.1373 37.4708 23.7871L37.4407 23.4955Z" fill="#2F2E41"/>
<path d="M57.1349 37.2989C57.0825 37.7782 57.1657 38.2626 57.375 38.6969C57.4804 38.9194 57.6165 39.126 57.7793 39.3107C57.9185 39.468 58.0759 39.6083 58.2481 39.7286C58.7582 40.0837 59.3781 40.2455 59.9966 40.1848C60.0351 40.1809 60.0735 40.1762 60.1119 40.1707C60.1503 40.1653 60.1886 40.159 60.2268 40.1518C60.2655 40.1449 60.3038 40.137 60.3419 40.1279C60.3799 40.1189 60.4181 40.1092 60.4564 40.0987L62.6051 39.4966L65.0134 32.7819L65.5654 38.6739L75.3364 35.9536L72.9939 10.9502L56.3398 12.5912L56.7966 13.031C58.3141 14.5081 59.3948 16.3753 59.9195 18.427C60.4404 20.5061 60.6012 22.659 60.3949 24.7924C60.2021 26.9496 59.8027 29.0834 59.2021 31.1642C58.6793 33.0068 58.0508 34.8177 57.3197 36.588C57.2252 36.8152 57.163 37.0545 57.1349 37.2989V37.2989Z" fill="#2F2E41"/>
<path d="M59.3556 116.132C59.0693 116.131 58.7866 116.067 58.528 115.944L12.3916 117.121C12.0375 116.954 11.7427 116.683 11.546 116.344C11.3493 116.005 11.26 115.615 11.2898 115.224C11.3197 114.833 11.4673 114.461 11.7132 114.156C11.9591 113.851 12.2918 113.628 12.6672 113.516L42.8509 104.516C43.1635 104.423 43.4945 104.41 43.8133 104.479L90.5024 110.17C90.9156 110.259 91.2881 110.481 91.5633 110.802C91.8384 111.123 92.0009 111.525 92.0261 111.947C92.0512 112.369 91.9376 112.788 91.7026 113.139C91.4675 113.49 91.124 113.755 90.7244 113.893L59.9878 116.025C59.7844 116.095 59.5708 116.131 59.3556 116.132V116.132Z" fill="#3F3D56"/>
<path d="M61.0522 112.92C60.8439 112.92 60.639 112.866 60.4571 112.765L22.9876 114.515C22.7749 114.396 22.603 114.215 22.4943 113.997C22.3856 113.779 22.3453 113.532 22.3785 113.291C22.4117 113.049 22.5169 112.823 22.6804 112.642C22.8439 112.461 23.0581 112.333 23.2952 112.276L36.86 108.983C37.0717 108.932 37.2932 108.939 37.5016 109.002L72.3348 108.96C72.5828 109.036 72.8 109.189 72.9546 109.398C73.1092 109.606 73.1931 109.858 73.194 110.118C73.1949 110.377 73.1128 110.63 72.9596 110.839C72.8065 111.048 72.5904 111.203 72.343 111.281L61.4146 112.864C61.2973 112.901 61.1751 112.92 61.0522 112.92V112.92Z" fill="#2F2E41"/>
<path d="M57.1082 110.922C57.7567 111.341 58.4891 111.611 59.2536 111.716C60.0182 111.82 60.7963 111.756 61.5333 111.527C62.2703 111.298 62.9481 110.911 63.519 110.392C64.09 109.873 64.5402 109.235 64.8379 108.523L104.498 111.638L102.581 101.813L61.6741 101.423C60.445 101.002 59.1042 101.047 57.9058 101.548C56.7074 102.05 55.7346 102.974 55.1718 104.145C54.609 105.316 54.4952 106.652 54.8521 107.901C55.209 109.151 56.0117 110.226 57.1082 110.922V110.922Z" fill="#A0616A"/>
<path d="M80.5335 46.9341C80.5335 46.9341 86.5246 42.1412 93.714 50.7684C98.5624 56.5865 107.915 91.7584 108.691 106.333C108.74 107.255 108.598 108.178 108.274 109.043C107.949 109.907 107.45 110.696 106.807 111.359C106.164 112.022 105.391 112.544 104.536 112.894C103.682 113.245 102.764 113.414 101.841 113.393L80.7012 113.025L78.3374 99.7369L95.0271 99.9346L80.5335 46.9341Z" fill="#EFB365"/>
<path d="M56.7891 116.137C56.0639 116.137 55.3461 115.991 54.6778 115.71L11.9151 116.685C10.7865 116.215 9.84964 115.377 9.25599 114.308C8.66235 113.239 8.44661 112.001 8.64366 110.794L7.05469 73.2392C7.26541 71.8978 7.97146 70.6841 9.0334 69.8379C10.0953 68.9916 11.436 68.5743 12.7906 68.6683L52.491 70.3149C53.253 70.3649 53.9961 70.5745 54.6719 70.9301C55.3478 71.2857 55.9413 71.7794 56.4141 72.3792C56.8868 72.9789 57.2283 73.6714 57.4162 74.4116C57.6041 75.1518 57.6343 75.9233 57.5049 76.6759L62.1563 111.609C61.9375 112.874 61.2794 114.022 60.2977 114.851C59.316 115.679 58.0736 116.135 56.7891 116.137V116.137Z" fill="#3F3D56"/>
<path d="M24.3176 4.32767L6.47119 4.27735C5.99281 4.27678 5.53373 4.46591 5.19457 4.80327C4.85541 5.14063 4.66385 5.59871 4.66187 6.07708L4.59717 29.7085C4.59616 30.1863 4.78489 30.6451 5.1219 30.9839C5.45891 31.3227 5.91663 31.5139 6.39451 31.5154L16.2942 31.5442L24.2433 31.5657C24.7215 31.5666 25.1805 31.3775 25.5194 31.04C25.8582 30.7025 26.0492 30.2442 26.0502 29.766L26.055 28.3689L26.1173 6.13699C26.1183 5.65849 25.9293 5.19918 25.5918 4.85993C25.2544 4.52068 24.796 4.32925 24.3176 4.32767V4.32767Z" fill="#E6E6E6"/>
<path d="M23.0596 5.73942L7.7223 5.69629C7.27443 5.69573 6.84461 5.87273 6.52702 6.18853C6.20943 6.50432 6.02999 6.93313 6.02801 7.38099L5.98487 22.5745C5.98187 24.5698 6.77038 26.4848 8.17745 27.8995C9.58452 29.3142 11.4953 30.1131 13.4906 30.1209L16.4046 30.1281L22.9925 30.1473C23.4405 30.1482 23.8705 29.9714 24.1882 29.6555C24.5059 29.3396 24.6852 28.9106 24.6868 28.4626L24.6916 26.9336L24.7443 7.43372C24.7453 6.98573 24.5684 6.55566 24.2525 6.23799C23.9366 5.92031 23.5076 5.74099 23.0596 5.73942V5.73942Z" fill="white"/>
<path d="M21.3367 16.1211H9.37838C9.28413 16.1211 9.19079 16.1397 9.10371 16.1757C9.01663 16.2118 8.93751 16.2647 8.87086 16.3313C8.80421 16.398 8.75135 16.4771 8.71528 16.5642C8.67921 16.6512 8.66064 16.7446 8.66064 16.8388C8.66064 16.9331 8.67921 17.0264 8.71528 17.1135C8.75135 17.2006 8.80421 17.2797 8.87086 17.3463C8.93751 17.413 9.01663 17.4659 9.10371 17.5019C9.19079 17.538 9.28413 17.5566 9.37838 17.5566H21.3367C21.527 17.5566 21.7096 17.481 21.8442 17.3463C21.9788 17.2117 22.0544 17.0292 22.0544 16.8388C22.0544 16.6485 21.9788 16.4659 21.8442 16.3313C21.7096 16.1967 21.527 16.1211 21.3367 16.1211V16.1211Z" fill="#EFB365"/>
<path d="M12.0073 12.1855H9.37838C9.18802 12.1855 9.00547 12.2612 8.87087 12.3958C8.73627 12.5304 8.66064 12.7129 8.66064 12.9033C8.66064 13.0936 8.73627 13.2762 8.87087 13.4108C9.00547 13.5454 9.18802 13.621 9.37838 13.621H12.0073C12.1976 13.621 12.3802 13.5454 12.5148 13.4108C12.6494 13.2762 12.725 13.0936 12.725 12.9033C12.725 12.7129 12.6494 12.5304 12.5148 12.3958C12.3802 12.2612 12.1976 12.1855 12.0073 12.1855V12.1855Z" fill="#EFB365"/>
<path d="M21.3367 22.4307H9.37838C9.18802 22.4307 9.00546 22.5063 8.87086 22.6409C8.73626 22.7755 8.66064 22.958 8.66064 23.1484C8.66064 23.3388 8.73626 23.5213 8.87086 23.6559C9.00546 23.7905 9.18802 23.8661 9.37838 23.8661H21.3367C21.527 23.8661 21.7096 23.7905 21.8442 23.6559C21.9788 23.5213 22.0544 23.3388 22.0544 23.1484C22.0544 22.958 21.9788 22.7755 21.8442 22.6409C21.7096 22.5063 21.527 22.4307 21.3367 22.4307V22.4307Z" fill="#EFB365"/>
<path d="M21.3364 19.2764H9.37816C9.18812 19.2764 9.00586 19.3519 8.87149 19.4862C8.73711 19.6206 8.66162 19.8029 8.66162 19.9929C8.66162 20.1829 8.73711 20.3652 8.87149 20.4996C9.00586 20.634 9.18812 20.7094 9.37816 20.7094H21.3364C21.5265 20.7094 21.7087 20.634 21.8431 20.4996C21.9775 20.3652 22.053 20.1829 22.053 19.9929C22.053 19.8029 21.9775 19.6206 21.8431 19.4862C21.7087 19.3519 21.5265 19.2764 21.3364 19.2764V19.2764Z" fill="#EFB365"/>
<path d="M19.0127 14.7237C18.173 14.7237 17.3522 14.4747 16.654 14.0082C15.9558 13.5417 15.4116 12.8786 15.0903 12.1028C14.7689 11.327 14.6849 10.4734 14.8487 9.64979C15.0125 8.82621 15.4168 8.06971 16.0106 7.47595C16.6044 6.88218 17.3609 6.47782 18.1845 6.314C19.008 6.15018 19.8617 6.23426 20.6375 6.5556C21.4133 6.87695 22.0764 7.42112 22.5429 8.11932C23.0094 8.81751 23.2584 9.63836 23.2584 10.4781C23.2571 11.6037 22.8094 12.6828 22.0135 13.4788C21.2175 14.2747 20.1384 14.7224 19.0127 14.7237V14.7237ZM19.0127 6.52747C18.2314 6.52747 17.4676 6.75916 16.8179 7.19326C16.1682 7.62735 15.6619 8.24435 15.3629 8.96623C15.0638 9.68811 14.9856 10.4824 15.138 11.2488C15.2905 12.0151 15.6667 12.7191 16.2192 13.2716C16.7717 13.8241 17.4757 14.2003 18.242 14.3528C19.0083 14.5052 19.8027 14.427 20.5246 14.128C21.2464 13.8289 21.8634 13.3226 22.2975 12.6729C22.7316 12.0232 22.9633 11.2594 22.9633 10.4781C22.9621 9.43068 22.5455 8.42652 21.8049 7.68589C21.0643 6.94527 20.0601 6.52866 19.0127 6.52747V6.52747Z" fill="#EFB365"/>
<path d="M20.7961 12.1223C20.5028 10.6082 19.892 9.1735 19.004 7.91266C18.9839 7.87997 18.9558 7.85297 18.9224 7.83423C18.8889 7.8155 18.8512 7.80566 18.8129 7.80566C18.7745 7.80566 18.7369 7.8155 18.7034 7.83423C18.6699 7.85297 18.6419 7.87997 18.6218 7.91266C17.8484 9.26545 17.354 10.7596 17.1679 12.3067C17.1335 12.5888 17.5764 12.5863 17.6105 12.3067C17.6727 11.8053 17.7696 11.3089 17.9006 10.8209C17.9176 10.8176 17.9341 10.8125 17.95 10.8058C18.5385 10.5103 19.2034 10.4021 19.8552 10.4955C19.8609 10.4964 19.8663 10.4952 19.872 10.4957C20.0872 11.0619 20.2536 11.6454 20.3693 12.2399C20.4233 12.5193 20.8499 12.401 20.7961 12.1223ZM18.0599 10.2782C18.263 9.64798 18.5217 9.03704 18.8327 8.45253C19.1619 8.95552 19.4478 9.4856 19.6872 10.037C19.1336 9.99539 18.5777 10.0778 18.0599 10.2782V10.2782Z" fill="#EFB365"/>
</svg>
